<svg xmlns="http://www.w3.org/2000/svg" style="display:none">
<defs>
<symbol id="icon-phone" viewBox="0 0 24 24"><g fill="none" stroke="currentColor" stroke-width="2.3" stroke-linecap="round" stroke-linejoin="round">
<path d="M5.4 4.6c0-.6.5-1.1 1.1-1.1h2.5c.5 0 .9.3 1 .8l.9 2.4c.2.4 0 .9-.3 1.1L9.2 9c.9 1.9 2.4 3.4 4.3 4.3l1.2-1.4c.3-.3.7-.4 1.1-.3l2.4.9c.5.2.8.6.8 1v2.5c0 .6-.5 1.1-1.1 1.1A13.6 13.6 0 0 1 5.4 4.6Z"/>
</g></symbol>
<symbol id="icon-calendar" viewBox="0 0 24 24"><g fill="none" stroke="currentColor" stroke-width="2.3" stroke-linecap="round" stroke-linejoin="round">
<path d="M4.5 7.5a1.5 1.5 0 0 1 1.5-1.5h12a1.5 1.5 0 0 1 1.5 1.5v11A1.5 1.5 0 0 1 18 20H6a1.5 1.5 0 0 1-1.5-1.5Z"/>
<path d="M4.5 10h15"/><path d="M8.5 3.5v4"/><path d="M15.5 3.5v4"/>
</g></symbol>
<symbol id="icon-check" viewBox="0 0 24 24"><g fill="none" stroke="currentColor" stroke-width="2.3" stroke-linecap="round" stroke-linejoin="round">
<path d="M5 12.5l4.5 4.5L19.5 6.5"/>
</g></symbol>
<symbol id="icon-headset" viewBox="0 0 24 24"><g fill="none" stroke="currentColor" stroke-width="2.3" stroke-linecap="round" stroke-linejoin="round">
<path d="M5 13.5v-1.5a7 7 0 0 1 14 0v1.5"/>
<path d="M5 13.5h1.6a1 1 0 0 1 1 1v3a1 1 0 0 1-1 1H6a2 2 0 0 1-2-2v-2a1 1 0 0 1 1-1Z"/>
<path d="M19 13.5h-1.6a1 1 0 0 0-1 1v3a1 1 0 0 0 1 1H18a2 2 0 0 0 2-2v-2a1 1 0 0 0-1-1Z"/>
<path d="M16.5 18.5a4 4 0 0 1-3.5 2H12"/>
</g></symbol>
<symbol id="icon-target" viewBox="0 0 24 24"><g fill="none" stroke="currentColor" stroke-width="2.3" stroke-linecap="round" stroke-linejoin="round">
<path d="M12 21a9 9 0 1 0 0-18 9 9 0 0 0 0 18Z"/>
<path d="M12 16.5a4.5 4.5 0 1 0 0-9 4.5 4.5 0 0 0 0 9Z"/>
<path d="M12 12.6a.6.6 0 1 0 0-1.2.6.6 0 0 0 0 1.2Z"/>
</g></symbol>
<symbol id="icon-users" viewBox="0 0 24 24"><g fill="none" stroke="currentColor" stroke-width="2.3" stroke-linecap="round" stroke-linejoin="round">
<path d="M9 11.5a3.2 3.2 0 1 0 0-6.4 3.2 3.2 0 0 0 0 6.4Z"/>
<path d="M3.8 19.5a5.2 5.2 0 0 1 10.4 0"/>
<path d="M16 5.4a3 3 0 0 1 0 5.6"/>
<path d="M17.4 13.6a5.2 5.2 0 0 1 3 4.7"/>
</g></symbol>
<symbol id="icon-clipboard" viewBox="0 0 24 24"><g fill="none" stroke="currentColor" stroke-width="2.3" stroke-linecap="round" stroke-linejoin="round">
<path d="M9 5.5H6.5A1.5 1.5 0 0 0 5 7v12.5A1.5 1.5 0 0 0 6.5 21h11a1.5 1.5 0 0 0 1.5-1.5V7a1.5 1.5 0 0 0-1.5-1.5H15"/>
<path d="M9.2 4.4a1 1 0 0 1 1-1h3.6a1 1 0 0 1 1 1v1.8a.8.8 0 0 1-.8.8H10a.8.8 0 0 1-.8-.8Z"/>
<path d="M8.5 11.5h7"/><path d="M8.5 15h7"/><path d="M8.5 18.5h4"/>
</g></symbol>
<symbol id="icon-shield" viewBox="0 0 24 24"><g fill="none" stroke="currentColor" stroke-width="2.3" stroke-linecap="round" stroke-linejoin="round">
<path d="M12 3.5l7 2.5v5c0 4.4-3 7.6-7 9-4-1.4-7-4.6-7-9v-5Z"/><path d="M9 12l2 2 4-4"/>
</g></symbol>
<symbol id="icon-heart" viewBox="0 0 24 24"><g fill="none" stroke="currentColor" stroke-width="2.3" stroke-linecap="round" stroke-linejoin="round">
<path d="M12 20.5S4.5 16 4.5 10.6A3.8 3.8 0 0 1 12 8.4a3.8 3.8 0 0 1 7.5 2.2C19.5 16 12 20.5 12 20.5Z"/>
</g></symbol>
<symbol id="icon-chart" viewBox="0 0 24 24"><g fill="none" stroke="currentColor" stroke-width="2.3" stroke-linecap="round" stroke-linejoin="round">
<path d="M4 20h16"/><path d="M7 20v-7"/><path d="M12 20V8"/><path d="M17 20v-4"/>
</g></symbol>
<symbol id="icon-globe" viewBox="0 0 24 24"><g fill="none" stroke="currentColor" stroke-width="2.3" stroke-linecap="round" stroke-linejoin="round">
<path d="M12 21a9 9 0 1 0 0-18 9 9 0 0 0 0 18Z"/><path d="M3.5 12h17"/><path d="M12 3a13 13 0 0 1 0 18 13 13 0 0 1 0-18Z"/>
</g></symbol>
<symbol id="icon-mail" viewBox="0 0 24 24"><g fill="none" stroke="currentColor" stroke-width="2.3" stroke-linecap="round" stroke-linejoin="round">
<path d="M4.5 6.5h15a1 1 0 0 1 1 1v9a1 1 0 0 1-1 1h-15a1 1 0 0 1-1-1v-9a1 1 0 0 1 1-1Z"/><path d="M4 7.5l8 5.5 8-5.5"/>
</g></symbol>
<symbol id="icon-pin" viewBox="0 0 24 24"><g fill="none" stroke="currentColor" stroke-width="2.3" stroke-linecap="round" stroke-linejoin="round">
<path d="M12 21s6-5.4 6-10A6 6 0 0 0 6 11c0 4.6 6 10 6 10Z"/><path d="M12 13a2 2 0 1 0 0-4 2 2 0 0 0 0 4Z"/>
</g></symbol>
<symbol id="icon-bolt" viewBox="0 0 24 24"><g fill="none" stroke="currentColor" stroke-width="2.3" stroke-linecap="round" stroke-linejoin="round">
<path d="M13 2.5 5.5 13H11l-1 8.5L18.5 10H13Z"/>
</g></symbol>
<symbol id="icon-clock" viewBox="0 0 24 24"><g fill="none" stroke="currentColor" stroke-width="2.3" stroke-linecap="round" stroke-linejoin="round">
<path d="M12 21a9 9 0 1 0 0-18 9 9 0 0 0 0 18Z"/><path d="M12 7.5V12l3 2"/>
</g></symbol>
<symbol id="icon-star" viewBox="0 0 24 24"><g fill="none" stroke="currentColor" stroke-width="2.3" stroke-linecap="round" stroke-linejoin="round">
<path d="M12 3.5l2.5 5 5.5.8-4 3.9 1 5.5L12 16.1 7 18.7l1-5.5-4-3.9 5.5-.8Z"/>
</g></symbol>
<symbol id="icon-doc" viewBox="0 0 24 24"><g fill="none" stroke="currentColor" stroke-width="2.3" stroke-linecap="round" stroke-linejoin="round">
<path d="M7 3.5h7l4 4v13H7Z"/><path d="M14 3.5v4h4"/><path d="M9.5 12.5h6"/><path d="M9.5 16h6"/>
</g></symbol>
<symbol id="icon-handshake" viewBox="0 0 24 24"><g fill="none" stroke="currentColor" stroke-width="2.3" stroke-linecap="round" stroke-linejoin="round">
<path d="M3.5 9.5 7 6.5l3 2 2-1.5 2 1.5 3-2 3.5 3"/><path d="M7 8.5v6l3 3 1.5-1.5"/><path d="M17 8.5v6l-3 3-2.5-2.5"/><path d="M11.5 17.5 13 16"/>
</g></symbol>
<symbol id="icon-refresh" viewBox="0 0 24 24"><g fill="none" stroke="currentColor" stroke-width="2.3" stroke-linecap="round" stroke-linejoin="round">
<path d="M19 8a7 7 0 0 0-12-2.5L4.5 8"/><path d="M5 16a7 7 0 0 0 12 2.5L19.5 16"/><path d="M4.5 4.5V8H8"/><path d="M19.5 19.5V16H16"/>
</g></symbol>
<symbol id="icon-search" viewBox="0 0 24 24"><g fill="none" stroke="currentColor" stroke-width="2.3" stroke-linecap="round" stroke-linejoin="round">
<path d="M11 18a7 7 0 1 0 0-14 7 7 0 0 0 0 14Z"/><path d="M16.5 16.5 20.5 20.5"/>
</g></symbol>
</defs>
</svg>
